<?xml version="1.0" encoding="UTF-8" standalone="no"?>
<!-- Created with Inkscape (http://www.inkscape.org/) -->

<svg
   width="120"
   height="120"
   viewBox="0 0 31.75 31.750001"
   version="1.1"
   id="svg13563"
   inkscape:version="1.2.2 (732a01da63, 2022-12-09)"
   sodipodi:docname="logo.svg"
   xmlns:inkscape="http://www.inkscape.org/namespaces/inkscape"
   xmlns:sodipodi="http://sodipodi.sourceforge.net/DTD/sodipodi-0.dtd"
   xmlns:xlink="http://www.w3.org/1999/xlink"
   xmlns="http://www.w3.org/2000/svg"
   xmlns:svg="http://www.w3.org/2000/svg">
  <sodipodi:namedview
     pagecolor="#505050"
     inkscape:zoom="1.1893044"
     inkscape:cx="75.674487"
     inkscape:cy="227.86429"
     inkscape:window-width="1440"
     inkscape:window-height="2489"
     inkscape:window-x="2552"
     inkscape:window-y="-8"
     inkscape:window-maximized="1"
     inkscape:current-layer="svg13563"
     id="namedview15901"
     bordercolor="#eeeeee"
     borderopacity="1"
     inkscape:showpageshadow="0"
     inkscape:pageopacity="0"
     inkscape:pagecheckerboard="0"
     inkscape:deskcolor="#505050" />
  <defs
     id="defs15910">
    <linearGradient
       inkscape:collect="always"
       id="linearGradient1544">
      <stop
         style="stop-color:#000000;stop-opacity:1;"
         offset="0"
         id="stop1540" />
      <stop
         style="stop-color:#000000;stop-opacity:0;"
         offset="1"
         id="stop1542" />
    </linearGradient>
    <rect
       x="49.348057"
       y="529.15387"
       width="461.37463"
       height="227.71452"
       id="rect15906" />
    <linearGradient
       inkscape:collect="always"
       xlink:href="#linearGradient1544"
       id="linearGradient14860"
       gradientUnits="userSpaceOnUse"
       gradientTransform="matrix(-0.00921381,-0.28744216,-0.28744216,0.00921381,52.002876,30.870588)"
       x1="38.209305"
       y1="112.70055"
       x2="13.743905"
       y2="160.09074" />
    <linearGradient
       inkscape:collect="always"
       xlink:href="#linearGradient1544"
       id="linearGradient14862"
       gradientUnits="userSpaceOnUse"
       gradientTransform="matrix(0.28758979,0,0,0.28758979,-0.80585338,-19.828159)"
       x1="38.209305"
       y1="112.70055"
       x2="13.743905"
       y2="160.09074" />
  </defs>
  <g
     inkscape:label="Calque 1"
     inkscape:groupmode="layer"
     id="layer1"
     transform="translate(24.996765,9.6238477)" />
  <path
     style="fill:url(#linearGradient14860);fill-opacity:1;stroke-width:0.0760909"
     d="m 30.260825,15.576389 0.202977,-0.06905 c 0.284108,-0.183532 0.637397,-0.198891 0.899924,-0.0033 0.262532,0.195589 0.298138,0.499569 0.3041,0.866835 0.0029,0.170967 -8.39e-4,0.293299 -0.295518,1.811908 -0.294674,1.518604 -0.470817,3.12282 -0.612383,3.648954 -0.141575,0.526137 -0.693497,1.289418 -0.870963,1.491156 -0.177468,0.201745 -0.409625,0.624559 -1.116996,1.407733 -1.06684,1.347481 -1.886362,2.613684 -2.949392,3.127864 -0.503697,0.323828 -1.646632,0.756264 -2.324439,1.117319 -0.677806,0.361051 -1.789919,0.891341 -2.911783,1.217948 -1.112174,0.265521 -4.853324,0.108738 -5.531167,0.126134 -0.751571,-0.01263 -1.167059,-0.03725 -2.495928,0.07506 -1.328875,0.112293 -3.5318825,0.360411 -5.2125495,0.809809 -0.3420076,0.10955 -1.227568,0.393942 -1.4879994,0.420472 -0.068856,-0.320338 -0.1292213,-0.67646 -0.1995085,-0.971085 -0.070295,-0.294621 -0.1363625,-0.834556 -0.1895494,-1.31126 -0.053184,-0.476703 -0.069458,-1.427261 -0.070055,-1.60028 -6.053e-4,-0.173026 0.048543,-0.799652 0.085871,-1.144577 0.037326,-0.344923 0.1310835,-0.604493 0.2899837,-0.947121 0.3036532,0.02905 0.6396007,-0.009 0.7946784,-0.04772 0.4021865,-0.147939 0.7945313,-0.324421 1.1625942,-0.699979 0.3680634,-0.375555 0.9638507,-0.913762 1.1837039,-1.162174 0.6848267,-0.718252 1.6911676,-1.575411 2.4269566,-1.861867 0.735791,-0.286448 1.200306,-0.445834 1.810874,-0.58266 0.666939,-0.08649 1.289316,-0.182367 1.988563,-0.259688 0.874375,-0.07322 1.158175,-0.04319 1.703199,-0.03431 0.54503,0.0089 1.5622,0.0845 1.984102,0.09144 0.421898,0.0069 1.073596,0.01136 1.683273,-0.0061 0.609674,-0.01751 1.175154,-0.103274 1.880096,-0.171899 0.704939,-0.06862 1.676635,-0.195273 1.857556,-0.209497 0.180924,-0.01423 0.424393,-0.03141 0.695026,-0.01694 0.270634,0.0145 0.55244,0.128912 0.768644,0.435032 0.09222,0.126979 0.185248,0.310177 0.188996,0.443993 0.0037,0.133818 0.01656,0.167232 -0.07088,0.426195 -0.08742,0.258967 -0.259576,0.606833 -0.487108,0.761519 -0.25972,0.294572 -0.742994,0.493273 -1.252298,0.716631 -0.509304,0.223358 -0.994805,0.333388 -1.707097,0.436092 -0.712292,0.102704 -2.139182,0.09588 -2.556014,0.08366 -0.41683,-0.0123 -1.336935,0.15556 -1.950897,0.391438 -0.419414,0.178729 -0.713761,0.522102 -0.84863,0.884273 -0.02345,0.103262 0.02256,0.338223 0.190886,0.449468 0.168334,0.11124 0.292491,0.235496 0.659247,0.220185 0.36633,-5.75e-4 0.841341,-0.223334 1.460039,-0.438374 0.557042,-0.254687 1.647032,-0.44212 3.012088,-0.843837 0,0 1.730421,-0.499946 2.150604,-0.700224 0.420189,-0.200274 0.850107,-0.406847 0.977211,-0.495985 0.127103,-0.08914 0.430895,-0.365869 0.592901,-0.57491 0.162008,-0.20904 0.322992,-0.403071 0.412432,-0.645869 0.08944,-0.242795 0.11459,-0.51667 0.0997,-0.735238 -0.0149,-0.218574 -0.08301,-0.556469 -0.143056,-0.680302 -0.06006,-0.123828 -0.02001,-0.329795 -0.0113,-0.340045 0.0088,-0.01018 0.363632,-0.416 0.44553,-0.900482 0.0819,-0.484483 0.282335,-1.295204 0.438988,-1.757962 0.156656,-0.462758 0.280926,-0.838546 0.431459,-1.225699 0.170225,-0.437775 0.547247,-0.818769 0.667824,-0.937828 0.240127,-0.206374 0.442013,-0.380757 0.863322,-0.431385 0.421308,-0.05063 0.738715,0.116178 0.982171,0.346529 z"
     id="path302-2-1-7"
     sodipodi:nodetypes="cczczzzcczcczcczzzzcczczcczzzzzzczzczzzcczccszzzzzzzzzsczcc" />
  <path
     style="fill:url(#linearGradient14862);fill-opacity:1;stroke-width:0.0760909"
     d="M 15.177065,1.4127308 15.239579,1.207642 C 15.413912,0.91780313 15.417945,0.56420283 15.21404,0.30807497 15.010142,0.05194749 14.705179,0.02609605 14.337907,0.03191111 14.166938,0.03449949 14.044784,0.04214934 12.536396,0.38533032 11.02801,0.72850575 9.4302622,0.95595197 8.9089339,1.1143046 8.3876021,1.2726574 7.6423939,1.8487544 7.4464445,2.0325933 7.2504926,2.2164322 6.8353307,2.4620195 6.0752245,3.1941166 4.7626168,4.3035806 3.5233161,5.1632469 3.0434639,6.24221 2.7359356,6.7560236 2.3403385,7.9122268 2.0011839,8.6012546 1.6620321,9.290283 1.1676451,10.41881 0.87714771,11.550563 c -0.22974945,1.120111 0.0468078,4.854317 0.051139,5.532368 0.0367048,0.750781 0.0746152,1.165265 0.004944,2.497053 -0.0696598,1.331788 -0.24707083,3.541614 -0.64239163,5.235817 -0.0985513,0.345344 -0.35442564,1.239561 -0.37259557,1.50071 0.32237952,0.05856 0.68025336,0.107484 0.97697644,0.168295 0.29672375,0.06082 0.83849695,0.109554 1.31666095,0.147441 0.4781613,0.03788 1.4287547,0.0237 1.6017055,0.01875 0.1729536,-0.0049 0.7976835,-0.07414 1.1412354,-0.122499 C 5.2983737,26.480148 5.5548061,26.378117 5.892169,26.208322 5.853408,25.905754 5.880637,25.568756 5.9144,25.412518 6.049492,25.005837 6.2131948,24.608002 6.5767677,24.228097 6.9403388,23.84819 7.4591799,23.235463 7.7004222,23.007766 8.396363,22.300278 9.2208401,21.266994 9.4835793,20.522404 c 0.2627362,-0.74459 0.4071434,-1.213977 0.5243447,-1.828611 0.06507,-0.669368 0.140965,-1.294497 0.195846,-1.995865 0.04517,-0.876272 0.0061,-1.158961 -0.02027,-1.703423 C 10.15715,14.45004 10.048991,13.435817 10.028535,13.014354 10.008085,12.592891 9.98279,11.94167 9.980656,11.33175 c -0.00198,-0.609924 0.065574,-1.177862 0.11158,-1.8846396 0.046,-0.7067779 0.141454,-1.6820292 0.149877,-1.8633143 0.0084,-0.1812881 0.01781,-0.4251847 -0.0053,-0.6952144 C 10.213624,6.618554 10.090232,6.3405583 9.7773393,6.1342763 9.6474724,6.04617 9.4613875,5.9590616 9.3275197,5.9596076 9.1936525,5.9601835 9.1598411,5.9484186 8.9038141,6.0440994 8.6477841,6.1397725 8.3056068,6.3229838 8.1582955,6.555354 7.8721925,6.8243769 7.6890783,7.3137708 7.4821515,7.829969 7.2752216,8.3461696 7.1808028,8.8349432 7.1009741,9.5501611 7.0211417,10.26538 7.0736819,11.691319 7.099296,12.107545 7.1249461,12.523769 6.9866471,13.448781 6.7705635,14.069983 6.605369,14.494909 6.2715916,14.800105 5.9139344,14.946508 5.8114335,14.973255 5.575118,14.934804 5.4585406,14.770119 5.3419633,14.605434 5.2137902,14.485328 5.2173477,14.118262 5.2062181,13.752102 5.4136105,13.2702 5.60872,12.644931 5.8454295,12.080015 5.9978462,10.984577 6.3556191,9.6073531 c 0,0 0.4442515,-1.7455528 0.6309639,-2.1719391 C 7.1732942,7.0090283 7.3659852,6.5727104 7.4510088,6.4428178 7.5360317,6.3129252 7.8028833,6.000421 8.0066266,5.8318003 8.2103694,5.6631751 8.3991434,5.4960568 8.6389504,5.398886 8.8787543,5.3017123 9.1516822,5.2678025 9.3706191,5.2756854 c 0.2189392,0.00788 0.565725,0.051727 0.6845329,0.1211874 0.08398,0.049097 0.359122,-0.055791 0.369087,-0.064815 0.01,-0.00903 0.375285,-0.3115622 0.856894,-0.4089401 0.481592,-0.097383 1.285472,-0.3236873 1.742974,-0.4950851 C 13.481609,4.2566346 13.853222,4.1203832 14.235354,3.9575211 14.667452,3.7733629 15.036169,3.3843258 15.151305,3.259995 15.34988,3.0133869 15.517703,2.8060145 15.554809,2.383298 15.591909,1.9605812 15.415026,1.6486842 15.17699,1.4127312 Z"
     id="path14047-1"
     sodipodi:nodetypes="cccccscccccccccccccccscsccccccccccccsccccscccsscccsccsscccc" />
  <path
     id="rect14067-2-6"
     style="fill:#000000;fill-opacity:1;stroke-width:0.455333;stroke-linecap:round;stroke-linejoin:round"
     d="m 18.533948,6.3936349 c -0.183667,0 -0.331226,0.040567 -0.442728,0.1217169 -0.111513,0.081149 -0.167193,0.1912552 -0.167193,0.3303716 0,0.081152 0.02289,0.1622837 0.06881,0.2434327 0.05248,0.081152 0.111556,0.1362806 0.177149,0.1652611 l 0.344343,0.1391074 c 0.14431,0.057964 0.259073,0.1477117 0.344346,0.2694394 0.09183,0.1217254 0.137767,0.2463957 0.137767,0.3739187 0,0.1391159 -0.06233,0.3043505 -0.186959,0.495635 l -1.654099,2.2102203 0.551068,0.965114 2.559319,-3.3579853 c 0.308297,-0.4289405 0.695272,-0.756436 1.160989,-0.9825016 0.229583,-0.1101324 0.367387,-0.1824957 0.413303,-0.2172744 0.118074,-0.1043372 0.177001,-0.226183 0.177001,-0.3652995 0,-0.11593 -0.06233,-0.2086516 -0.186959,-0.2782083 -0.11807,-0.075354 -0.268877,-0.112948 -0.452538,-0.112948 z M 13.078694,6.526349 c -0.348892,0 -0.593131,0.033255 -0.732679,0.099422 -0.133214,0.066167 -0.199738,0.1818868 -0.199738,0.3473168 0,0.1157953 0.02217,0.20684 0.06658,0.2730089 0.05075,0.06614 0.139606,0.1267007 0.266468,0.1819036 0.145901,0.066168 0.263266,0.140692 0.352071,0.2233705 0.08881,0.077195 0.171181,0.1847946 0.247298,0.3226471 l 4.672046,8.1802801 c 0.107843,0.187485 0.164821,0.328157 0.171205,0.42192 0.0064,0.115801 -0.09835,0.242605 -0.314025,0.380459 -0.12052,0.07714 -0.202889,0.143475 -0.247299,0.198551 -0.0444,0.04963 -0.06658,0.110191 -0.06658,0.181907 0,0.198508 0.111027,0.339243 0.333049,0.421919 0.101496,0.03857 0.3234,0.05782 0.665949,0.05782 h 1.753075 c 0.348893,0 0.577284,-0.03866 0.685122,-0.115919 0.126876,-0.08822 0.190376,-0.206757 0.190376,-0.355639 0,-0.115798 -0.03183,-0.206694 -0.09526,-0.27286 -0.05709,-0.06617 -0.171139,-0.137787 -0.342413,-0.215048 -0.196648,-0.08823 -0.352168,-0.228927 -0.466359,-0.42192 L 15.231398,7.9738691 c -0.05075,-0.088218 -0.07609,-0.1709292 -0.07609,-0.2481899 0,-0.071647 0.01582,-0.1268446 0.04756,-0.1654073 0.03806,-0.044115 0.104737,-0.096469 0.199889,-0.1570871 0.20934,-0.1213088 0.314026,-0.2620039 0.314026,-0.4219233 0,-0.1599087 -0.07301,-0.2756002 -0.218912,-0.3473163 C 15.358311,6.562234 15.126749,6.526349 14.803233,6.526349 Z m 12.887397,2.2573294 v 0.6161617 h 0.580497 V 8.7836784 Z m -0.74204,1.3299656 c -0.130534,0 -0.255103,0.01656 -0.373768,0.04979 -0.118669,0.03085 -0.227872,0.07486 -0.327551,0.131822 -0.09968,0.05696 -0.189789,0.123347 -0.270481,0.199294 -0.07832,0.07594 -0.144856,0.157852 -0.199443,0.245665 h -0.0107 L 23.935406,10.20267 h -0.427272 v 3.381909 h 0.55181 v -2.356606 c 0.05933,-0.09731 0.132881,-0.181599 0.220696,-0.252797 0.09019,-0.0712 0.189991,-0.130574 0.299166,-0.178041 0.111544,-0.04984 0.230149,-0.08655 0.355935,-0.110273 0.125786,-0.02373 0.253936,-0.03567 0.38447,-0.03567 h 0.0428 l -1.47e-4,-0.53041 c -0.01898,-0.0023 -0.04151,-0.0036 -0.06762,-0.0036 -0.02373,-0.0023 -0.04746,-0.0036 -0.07119,-0.0036 z m -4.08085,0.01366 c -0.134086,0 -0.258799,0.01884 -0.374068,0.05647 -0.112914,0.03764 -0.210588,0.0823 -0.292922,0.134052 -0.07998,0.0494 -0.144694,0.09649 -0.194094,0.141186 -0.04705,0.04469 -0.08578,0.09057 -0.116364,0.137617 h -0.0107 L 20.038686,10.215578 H 19.62583 v 4.992908 h 0.54691 v -1.951331 h 0.01055 c 0.119971,0.131734 0.255316,0.231689 0.405869,0.299908 0.150553,0.06587 0.328131,0.09883 0.532788,0.09883 0.0988,0 0.203465,-0.01291 0.314026,-0.03879 0.112916,-0.02352 0.223504,-0.06241 0.331712,-0.116514 0.108211,-0.05646 0.212879,-0.129373 0.314025,-0.218764 0.101154,-0.09174 0.189412,-0.204612 0.264686,-0.338697 0.07528,-0.134087 0.135276,-0.29055 0.179974,-0.46933 0.04704,-0.181133 0.07059,-0.38818 0.07059,-0.621067 0,-0.310514 -0.04117,-0.573921 -0.123499,-0.79034 -0.07999,-0.21877 -0.187075,-0.397564 -0.32116,-0.536355 -0.134086,-0.138791 -0.289333,-0.239962 -0.465763,-0.303474 -0.174076,-0.06352 -0.355151,-0.09526 -0.543341,-0.09526 z m 4.837157,0.05944 v 3.38325 h 0.551963 v -3.38325 z m 1.243472,0.03894 1.270075,3.332717 h 0.568306 l 1.269924,-3.332717 h -0.568309 l -0.659558,1.852352 c -0.135647,0.376528 -0.243277,0.686357 -0.322792,0.929587 H 28.7675 C 28.6833,12.7527 28.575676,12.442871 28.444705,12.078029 l -0.659558,-1.852352 z m -6.165341,0.370945 c 0.157607,0 0.296301,0.02932 0.416274,0.08813 0.119971,0.05881 0.221139,0.143574 0.303474,0.254135 0.08233,0.108211 0.14355,0.239913 0.183542,0.395171 0.04235,0.155253 0.06346,0.330553 0.06346,0.525803 0,0.265819 -0.03175,0.484566 -0.09526,0.656289 -0.06351,0.171723 -0.144635,0.308135 -0.243433,0.409289 -0.09645,0.0988 -0.202326,0.16822 -0.317594,0.20821 -0.115266,0.03764 -0.22464,0.05648 -0.328144,0.05648 -0.169372,0 -0.328114,-0.03418 -0.476314,-0.1024 -0.145849,-0.06822 -0.276486,-0.161033 -0.391752,-0.278655 v -1.75367 c 0.03293,-0.04234 0.07653,-0.09065 0.130632,-0.144753 0.0541,-0.05411 0.118817,-0.104688 0.194094,-0.151735 0.07528,-0.04705 0.158681,-0.08579 0.250416,-0.116367 0.0941,-0.03056 0.197695,-0.04593 0.310609,-0.04592 z m -5.701808,2.07706 -2.962364,3.840538 c -0.26894,0.382569 -0.649409,0.65791 -1.141373,0.82601 -0.190226,0.06376 -0.32463,0.133303 -0.403344,0.208657 -0.07215,0.06956 -0.108341,0.159455 -0.108341,0.269589 0,0.139116 0.05908,0.249223 0.17715,0.330372 0.124629,0.07535 0.291978,0.113098 0.501875,0.113098 h 2.538515 c 0.203347,0 0.340999,-0.0058 0.413152,-0.0174 0.07216,-0.01159 0.137732,-0.03774 0.196769,-0.07832 0.157426,-0.104338 0.236151,-0.237627 0.236151,-0.399929 0,-0.121725 -0.03604,-0.217418 -0.108194,-0.286977 -0.07215,-0.06956 -0.206558,-0.139098 -0.403345,-0.208658 C 13.93912,17.143161 13.76203,16.940332 13.76203,16.6621 c 0,-0.191284 0.111513,-0.449241 0.334536,-0.773844 l 1.801227,-2.223445 z"
     sodipodi:nodetypes="sssccccsccccccscssscsccccccccscsscsccccsccscsscccccscsccccccccccsscccsssccccccccccccscccscscscssccccccccccccccccssccssccscccsscsccccscssscsscsccc" />
</svg>
